<?xml version="1.0" encoding="UTF-8" standalone="no"?>
<svg xmlns="http://www.w3.org/2000/svg" xmlns:xlink="http://www.w3.org/1999/xlink" class="card" face="4S" height="3.5in" preserveAspectRatio="none" viewBox="-120 -168 240 336" width="2.5in"><defs><symbol id="SS4" viewBox="-600 -600 1200 1200" preserveAspectRatio="xMinYMid"><path d="M0 -500C350 -250 460 -100 460 100C460 300 260 340 210 340C110 340 55 285 100 300L130 500L-130 500L-100 300C-55 285 -110 340 -210 340C-260 340 -460 300 -460 100C-460 -100 -350 -250 0 -500Z" fill="black"></path></symbol><symbol id="VS4" viewBox="-500 -500 1000 1000" preserveAspectRatio="xMinYMid"><path d="M50 460L250 460M150 460L150 -460L-300 175L-300 200L270 200" stroke="black" stroke-width="80" stroke-linecap="square" stroke-miterlimit="1.5" fill="none"></path></symbol><rect id="XS4" width="164.8" height="260.8" x="-82.4" y="-130.4"></rect></defs><rect width="239" height="335" x="-119.5" y="-167.5" rx="12" ry="12" fill="#d5c482" stroke="black"></rect><use xlink:href="#XS4" width="164.8" height="260.8" stroke="#88f" fill="#FFC"></use><use xlink:href="#VS4" height="32" width="32" x="-114.4" y="-156"></use><use xlink:href="#SS4" height="26.032" width="26.032" x="-111.416" y="-119"></use><use xlink:href="#SS4" height="70" width="70" x="-85.567" y="-131.234"></use><use xlink:href="#SS4" height="70" width="70" x="15.567" y="-131.234"></use><g transform="rotate(180)"><use xlink:href="#VS4" height="32" width="32" x="-114.4" y="-156"></use><use xlink:href="#SS4" height="26.032" width="26.032" x="-111.416" y="-119"></use><use xlink:href="#SS4" height="70" width="70" x="-85.567" y="-131.234"></use><use xlink:href="#SS4" height="70" width="70" x="15.567" y="-131.234"></use></g></svg>