<?xml version="1.0" encoding="UTF-8" standalone="no"?>
<svg xmlns="http://www.w3.org/2000/svg" xmlns:xlink="http://www.w3.org/1999/xlink" class="card" face="5H" height="3.5in" preserveAspectRatio="none" viewBox="-120 -168 240 336" width="2.5in"><defs><symbol id="SH5" viewBox="-600 -600 1200 1200" preserveAspectRatio="xMinYMid"><path d="M0 -300A230 230 0 0 1 460 -150C400 0 200 300 0 500C-200 300 -400 0 -460 -150A230 230 0 0 1 0 -300Z" fill="#0066b1"></path></symbol><symbol id="VH5" viewBox="-500 -500 1000 1000" preserveAspectRatio="xMinYMid"><path d="M170 -460L-175 -460L-210 -115C-210 -115 -200 -200 0 -200C100 -200 255 -80 255 120C255 320 180 460 -20 460C-220 460 -255 285 -255 285" stroke="#0066b1" stroke-width="80" stroke-linecap="square" stroke-miterlimit="1.5" fill="none"></path></symbol><rect id="XH5" width="164.8" height="260.8" x="-82.4" y="-130.4"></rect></defs><rect width="239" height="335" x="-119.5" y="-167.5" rx="12" ry="12" fill="#d5c482" stroke="black"></rect><use xlink:href="#XH5" width="164.8" height="260.8" stroke="#88f" fill="#FFC"></use><use xlink:href="#VH5" height="32" width="32" x="-114.4" y="-156"></use><use xlink:href="#SH5" height="26.032" width="26.032" x="-111.416" y="-119"></use><use xlink:href="#SH5" height="70" width="70" x="-84.896" y="-132.196"></use><use xlink:href="#SH5" height="70" width="70" x="14.896" y="-132.196"></use><use xlink:href="#SH5" height="70" width="70" x="-35" y="-35"></use><g transform="rotate(180)"><use xlink:href="#VH5" height="32" width="32" x="-114.4" y="-156"></use><use xlink:href="#SH5" height="26.032" width="26.032" x="-111.416" y="-119"></use><use xlink:href="#SH5" height="70" width="70" x="-84.896" y="-132.196"></use><use xlink:href="#SH5" height="70" width="70" x="14.896" y="-132.196"></use></g></svg>