<?xml version="1.0" encoding="UTF-8" standalone="no"?>
<svg xmlns:xlink="http://www.w3.org/1999/xlink" class="card" face="TD"
    height="3.5in" preserveAspectRatio="none" viewBox="-120 -168 240 336" width="2.5in" xmlns="http://www.w3.org/2000/svg">
    <defs>
        <symbol id="SDT" preserveAspectRatio="xMinYMid" viewBox="-600 -600 1200 1200">
            <path d="M-400 0L0 -500L400 0L 0 500Z" fill="#0066b1"></path>
        </symbol>
        <symbol id="VDT" preserveAspectRatio="xMinYMid" viewBox="-500 -500 1000 1000">
            <path
                d="M-260 430L-260 -430M-50 0L-50 -310A150 150 0 0 1 250 -310L250 310A150 150 0 0 1 -50 310Z"
                fill="none" stroke="#0066b1" stroke-linecap="square" stroke-miterlimit="1.5"
                stroke-width="80"></path>
        </symbol>
        <rect height="260.8" id="XDT" width="164.8" x="-82.4" y="-130.4"></rect>
    </defs>
    <rect fill="#d5c482" height="335" rx="12" ry="12" stroke="black" width="239" x="-119.5"
        y="-167.5"></rect>
    <use fill="#FFC" height="260.8" stroke="#88f" width="164.8" xlink:href="#XDT"></use>
    <use height="32" width="32" x="-114.4" y="-156" xlink:href="#VDT"></use>
    <use height="26.032" width="26.032" x="-111.416" y="-119" xlink:href="#SDT"></use>
    <use height="70" width="70" x="-89.067" y="-131.234" xlink:href="#SDT"></use>
    <use height="70" width="70" x="19.067" y="-131.234" xlink:href="#SDT"></use>
    <use height="70" width="70" x="-89.067" y="-67.078" xlink:href="#SDT"></use>
    <use height="70" width="70" x="19.067" y="-67.078" xlink:href="#SDT"></use>
    <use height="70" width="70" x="-35" y="-111.987" xlink:href="#SDT"></use>
    <g transform="rotate(180)">
        <use height="32" width="32" x="-114.4" y="-156" xlink:href="#VDT"></use>
        <use height="26.032" width="26.032" x="-111.416" y="-119" xlink:href="#SDT"></use>
        <use height="70" width="70" x="-89.067" y="-131.234" xlink:href="#SDT"></use>
        <use height="70" width="70" x="19.067" y="-131.234" xlink:href="#SDT"></use>
        <use height="70" width="70" x="-89.067" y="-67.078" xlink:href="#SDT"></use>
        <use height="70" width="70" x="19.067" y="-67.078" xlink:href="#SDT"></use>
        <use height="70" width="70" x="-35" y="-111.987" xlink:href="#SDT"></use>
    </g>
</svg>