<?xml version="1.0" encoding="UTF-8" standalone="no"?>
<svg xmlns="http://www.w3.org/2000/svg" xmlns:xlink="http://www.w3.org/1999/xlink" class="card" face="5C" height="3.5in" preserveAspectRatio="none" viewBox="-120 -168 240 336" width="2.5in"><defs><symbol id="SC5" viewBox="-600 -600 1200 1200" preserveAspectRatio="xMinYMid"><path d="M-100 500L100 500L100 340A260 260 0 1 0 200 -150A230 230 0 1 0 -200 -150A260 260 0 1 0 -100 340Z" fill="black"></path></symbol><symbol id="VC5" viewBox="-500 -500 1000 1000" preserveAspectRatio="xMinYMid"><path d="M170 -460L-175 -460L-210 -115C-210 -115 -200 -200 0 -200C100 -200 255 -80 255 120C255 320 180 460 -20 460C-220 460 -255 285 -255 285" stroke="black" stroke-width="80" stroke-linecap="square" stroke-miterlimit="1.5" fill="none"></path></symbol><rect id="XC5" width="164.8" height="260.8" x="-82.4" y="-130.4"></rect></defs><rect width="239" height="335" x="-119.5" y="-167.5" rx="12" ry="12" fill="#d5c482" stroke="black"></rect><use xlink:href="#XC5" width="164.8" height="260.8" stroke="#88f" fill="#FFC"></use><use xlink:href="#VC5" height="32" width="32" x="-114.4" y="-156"></use><use xlink:href="#SC5" height="26.032" width="26.032" x="-111.416" y="-119"></use><use xlink:href="#SC5" height="70" width="70" x="-84.43" y="-131.409"></use><use xlink:href="#SC5" height="70" width="70" x="14.43" y="-131.409"></use><use xlink:href="#SC5" height="70" width="70" x="-35" y="-35"></use><g transform="rotate(180)"><use xlink:href="#VC5" height="32" width="32" x="-114.4" y="-156"></use><use xlink:href="#SC5" height="26.032" width="26.032" x="-111.416" y="-119"></use><use xlink:href="#SC5" height="70" width="70" x="-84.43" y="-131.409"></use><use xlink:href="#SC5" height="70" width="70" x="14.43" y="-131.409"></use></g></svg>