<?xml version="1.0" encoding="UTF-8" standalone="no"?>
<svg xmlns="http://www.w3.org/2000/svg" xmlns:xlink="http://www.w3.org/1999/xlink" class="card" face="JH" height="3.5in" preserveAspectRatio="none" viewBox="-120 -168 240 336" width="2.5in"><defs><symbol id="SHJ" viewBox="-600 -600 1200 1200" preserveAspectRatio="xMinYMid"><path d="M0 -300A230 230 0 0 1 460 -150C400 0 200 300 0 500C-200 300 -400 0 -460 -150A230 230 0 0 1 0 -300Z" fill="#0066b1"></path></symbol><symbol id="VHJ" viewBox="-500 -500 1000 1000" preserveAspectRatio="xMinYMid"><path d="M50 -460L250 -460M150 -460L150 250A100 100 0 0 1 -250 250L-250 220" stroke="#0066b1" stroke-width="80" stroke-linecap="square" stroke-miterlimit="1.5" fill="none"></path></symbol><rect id="XHJ" width="164.8" height="260.8" x="-82.4" y="-130.4"></rect></defs><rect width="239" height="335" x="-119.5" y="-167.5" rx="12" ry="12" fill="#d5c482" stroke="black"></rect><use xlink:href="#XHJ" width="164.8" height="260.8" stroke="#88f" fill="#FFC"></use><use xlink:href="#VHJ" height="164.8" width="164.8" x="-82.4" y="-82.4"></use><use xlink:href="#VHJ" height="32" width="32" x="-114.4" y="-156"></use><use xlink:href="#SHJ" height="26.032" width="26.032" x="-111.416" y="-119"></use><g transform="rotate(180)"><use xlink:href="#VHJ" height="32" width="32" x="-114.4" y="-156"></use><use xlink:href="#SHJ" height="26.032" width="26.032" x="-111.416" y="-119"></use></g></svg>