<?xml version="1.0" encoding="UTF-8" standalone="no"?>
<svg xmlns="http://www.w3.org/2000/svg" xmlns:xlink="http://www.w3.org/1999/xlink" class="card" face="TD" height="3.5in" preserveAspectRatio="none" viewBox="-120 -168 240 336" width="2.5in"><defs><symbol id="SDT" viewBox="-600 -600 1200 1200" preserveAspectRatio="xMinYMid"><path d="M-400 0L0 -500L400 0L 0 500Z" fill="#0066b1"></path></symbol><symbol id="VDT" viewBox="-500 -500 1000 1000" preserveAspectRatio="xMinYMid"><path d="M-260 430L-260 -430M-50 0L-50 -310A150 150 0 0 1 250 -310L250 310A150 150 0 0 1 -50 310Z" stroke="#0066b1" stroke-width="80" stroke-linecap="square" stroke-miterlimit="1.5" fill="none"></path></symbol><rect id="XDT" width="164.8" height="260.8" x="-82.4" y="-130.4"></rect></defs><rect width="239" height="335" x="-119.5" y="-167.5" rx="12" ry="12" fill="#d5c482" stroke="black"></rect><use xlink:href="#XDT" width="164.8" height="260.8" stroke="#88f" fill="#FFC"></use><use xlink:href="#VDT" height="32" width="32" x="-114.4" y="-156"></use><use xlink:href="#SDT" height="26.032" width="26.032" x="-111.416" y="-119"></use><use xlink:href="#SDT" height="70" width="70" x="-89.067" y="-131.234"></use><use xlink:href="#SDT" height="70" width="70" x="19.067" y="-131.234"></use><use xlink:href="#SDT" height="70" width="70" x="-89.067" y="-67.078"></use><use xlink:href="#SDT" height="70" width="70" x="19.067" y="-67.078"></use><use xlink:href="#SDT" height="70" width="70" x="-35" y="-111.987"></use><g transform="rotate(180)"><use xlink:href="#VDT" height="32" width="32" x="-114.4" y="-156"></use><use xlink:href="#SDT" height="26.032" width="26.032" x="-111.416" y="-119"></use><use xlink:href="#SDT" height="70" width="70" x="-89.067" y="-131.234"></use><use xlink:href="#SDT" height="70" width="70" x="19.067" y="-131.234"></use><use xlink:href="#SDT" height="70" width="70" x="-89.067" y="-67.078"></use><use xlink:href="#SDT" height="70" width="70" x="19.067" y="-67.078"></use><use xlink:href="#SDT" height="70" width="70" x="-35" y="-111.987"></use></g></svg>