<?xml version="1.0" encoding="UTF-8" standalone="no"?>
<svg xmlns:xlink="http://www.w3.org/1999/xlink" class="card" face="2C"
    height="3.5in" preserveAspectRatio="none" viewBox="-120 -168 240 336" width="2.5in" xmlns="http://www.w3.org/2000/svg">
    <defs>
        <symbol id="SC2" preserveAspectRatio="xMinYMid" viewBox="-600 -600 1200 1200">
            <path
                d="M30 150C35 385 85 400 130 500L-130 500C-85 400 -35 385 -30 150A10 10 0 0 0 -50 150A210 210 0 1 1 -124 -51A10 10 0 0 0 -110 -65A230 230 0 1 1 110 -65A10 10 0 0 0 124 -51A210 210 0 1 1 50 150A10 10 0 0 0 30 150Z"
                fill="black"></path>
        </symbol>
        <symbol id="VC2" preserveAspectRatio="xMinYMid" viewBox="-500 -500 1000 1000">
            <path
                d="M-225 -225C-245 -265 -200 -460 0 -460C 200 -460 225 -325 225 -225C225 -25 -225 160 -225 460L225 460L225 300"
                fill="none" stroke="black" stroke-linecap="square" stroke-miterlimit="1.5"
                stroke-width="80"></path>
        </symbol>
        <rect height="253.538" id="XC2" width="164.8" x="-82.4" y="-126.769"></rect>
    </defs>
    <rect fill="#f2e8cf" height="335" rx="12" ry="12" stroke="black" width="239" x="-119.5"
        y="-167.5"></rect>
    <use fill="#FFC" height="253.538" stroke="#88f" width="164.8" xlink:href="#XC2"></use>
    <use height="32" width="32" x="-114.4" y="-156" xlink:href="#VC2"></use>
    <use height="26.769" width="26.769" x="-111.784" y="-119" xlink:href="#SC2"></use>
    <use height="70" width="70" x="-35" y="-127.69" xlink:href="#SC2"></use>
    <g transform="rotate(180)">
        <use height="32" width="32" x="-114.4" y="-156" xlink:href="#VC2"></use>
        <use height="26.769" width="26.769" x="-111.784" y="-119" xlink:href="#SC2"></use>
        <use height="70" width="70" x="-35" y="-127.69" xlink:href="#SC2"></use>
    </g>
</svg>