<?xml version="1.0" encoding="UTF-8" standalone="no"?>
<svg xmlns:xlink="http://www.w3.org/1999/xlink" class="card" face="5S"
    height="3.5in" preserveAspectRatio="none" viewBox="-120 -168 240 336" width="2.5in" xmlns="http://www.w3.org/2000/svg">
    <defs>
        <symbol id="SS5" preserveAspectRatio="xMinYMid" viewBox="-600 -600 1200 1200">
            <path
                d="M0 -500C350 -250 460 -100 460 100C460 300 260 340 210 340C110 340 55 285 100 300L130 500L-130 500L-100 300C-55 285 -110 340 -210 340C-260 340 -460 300 -460 100C-460 -100 -350 -250 0 -500Z"
                fill="#0066b1"></path>
        </symbol>
        <symbol id="VS5" preserveAspectRatio="xMinYMid" viewBox="-500 -500 1000 1000">
            <path
                d="M170 -460L-175 -460L-210 -115C-210 -115 -200 -200 0 -200C100 -200 255 -80 255 120C255 320 180 460 -20 460C-220 460 -255 285 -255 285"
                fill="none" stroke="#fff773" stroke-linecap="square" stroke-miterlimit="1.5"
                stroke-width="80"></path>
        </symbol>
        <symbol id="SS2Y" preserveAspectRatio="xMinYMid" viewBox="-600 -600 1200 1200">
            <path
                d="M0 -500C350 -250 460 -100 460 100C460 300 260 340 210 340C110 340 55 285 100 300L130 500L-130 500L-100 300C-55 285 -110 340 -210 340C-260 340 -460 300 -460 100C-460 -100 -350 -250 0 -500Z"
                fill="#fff773"></path>
        </symbol>
        <rect height="260.8" id="XS5" width="164.8" x="-82.4" y="-130.4"></rect>
    </defs>
    <rect fill="#000000" height="335" rx="12" ry="12" stroke="#000000" width="239" x="-119.5"
        y="-167.5"></rect>
    <use fill="#FFF" height="260.8" stroke="#88f" width="164.8" xlink:href="#XS5"></use>
    <use height="32" width="32" x="-114.4" y="-156" xlink:href="#VS5"></use>
    <use height="26.032" width="26.032" x="-111.416" y="-119" xlink:href="#SS2Y"></use>
    <use height="70" width="70" x="-85.567" y="-131.234" xlink:href="#SS5"></use>
    <use height="70" width="70" x="15.567" y="-131.234" xlink:href="#SS5"></use>
    <use height="70" width="70" x="-35" y="-35" xlink:href="#SS5"></use>
    <g transform="rotate(180)">
        <use height="32" width="32" x="-114.4" y="-156" xlink:href="#VS5"></use>
        <use height="26.032" width="26.032" x="-111.416" y="-119" xlink:href="#SS2Y"></use>
        <use height="70" width="70" x="-85.567" y="-131.234" xlink:href="#SS5"></use>
        <use height="70" width="70" x="15.567" y="-131.234" xlink:href="#SS5"></use>
    </g>
</svg>