<?xml version="1.0" encoding="UTF-8" standalone="no"?>
<svg xmlns:xlink="http://www.w3.org/1999/xlink" class="card" face="7C"
    height="3.5in" preserveAspectRatio="none" viewBox="-120 -168 240 336" width="2.5in" xmlns="http://www.w3.org/2000/svg">
    <defs>
        <symbol id="SC7" preserveAspectRatio="xMinYMid" viewBox="-600 -600 1200 1200">
            <path
                d="M-100 500L100 500L100 340A260 260 0 1 0 200 -150A230 230 0 1 0 -200 -150A260 260 0 1 0 -100 340Z"
                fill="#0066b1"></path>
        </symbol>
        <symbol id="CCLRD" preserveAspectRatio="xMinYMid" viewBox="-600 -600 1200 1200">
            <path
                d="M-100 500L100 500L100 340A260 260 0 1 0 200 -150A230 230 0 1 0 -200 -150A260 260 0 1 0 -100 340Z"
                fill="#fff773"></path>
        </symbol>
        <symbol id="VC7" preserveAspectRatio="xMinYMid" viewBox="-500 -500 1000 1000">
            <path d="M-265 -320L-265 -460L265 -460C135 -200 -90 100 -90 460" fill="none"
                stroke="#0066b1" stroke-linecap="square" stroke-miterlimit="1.5"
                stroke-width="80"></path>
        </symbol>
        <symbol id="VC7Y" preserveAspectRatio="xMinYMid" viewBox="-500 -500 1000 1000">
            <path d="M-265 -320L-265 -460L265 -460C135 -200 -90 100 -90 460" fill="none"
                stroke="#fff773" stroke-linecap="square" stroke-miterlimit="1.5"
                stroke-width="80"></path>
        </symbol>
        <rect height="260.8" id="XC7" width="164.8" x="-82.4" y="-130.4"></rect>
    </defs>
    <rect fill="#000000" height="335" rx="12" ry="12" stroke="#000000" width="239" x="-119.5"
        y="-167.5"></rect>
    <use fill="#FFF" height="260.8" stroke="#88f" width="164.8" xlink:href="#XC7"></use>
    <use height="32" width="32" x="-114.4" y="-156" xlink:href="#VC7Y"></use>
    <use height="26.032" width="26.032" x="-111.416" y="-119" xlink:href="#CCLRD"></use>
    <use height="70" width="70" x="-84.43" y="-131.409" xlink:href="#SC7"></use>
    <use height="70" width="70" x="14.43" y="-131.409" xlink:href="#SC7"></use>
    <use height="70" width="70" x="-84.43" y="-35" xlink:href="#SC7"></use>
    <use height="70" width="70" x="14.43" y="-35" xlink:href="#SC7"></use>
    <use height="70" width="70" x="-35" y="-112.127" xlink:href="#SC7"></use>
    <g transform="rotate(180)">
        <use height="32" width="32" x="-114.4" y="-156" xlink:href="#VC7Y"></use>
        <use height="26.032" width="26.032" x="-111.416" y="-119" xlink:href="#CCLRD"></use>
        <use height="70" width="70" x="-84.43" y="-131.409" xlink:href="#SC7"></use>
        <use height="70" width="70" x="14.43" y="-131.409" xlink:href="#SC7"></use>
    </g>
</svg>