<?xml version="1.0" encoding="UTF-8" standalone="no"?>
<svg xmlns="http://www.w3.org/2000/svg" xmlns:xlink="http://www.w3.org/1999/xlink" class="card" face="8S" height="3.5in" preserveAspectRatio="none" viewBox="-120 -168 240 336" width="2.5in"><defs><symbol id="SS8" viewBox="-600 -600 1200 1200" preserveAspectRatio="xMinYMid"><path d="M0 -500C350 -250 460 -100 460 100C460 300 260 340 210 340C110 340 55 285 100 300L130 500L-130 500L-100 300C-55 285 -110 340 -210 340C-260 340 -460 300 -460 100C-460 -100 -350 -250 0 -500Z" fill="#fff773"></path></symbol><symbol id="VS8" viewBox="-500 -500 1000 1000" preserveAspectRatio="xMinYMid"><path d="M-1 -50A205 205 0 1 1 1 -50L-1 -50A255 255 0 1 0 1 -50Z" stroke="#fff773" stroke-width="80" stroke-linecap="square" stroke-miterlimit="1.5" fill="none"></path></symbol></defs><rect width="239" height="335" x="-119.5" y="-167.5" rx="12" ry="12" fill="#000000" stroke="black"></rect><use xlink:href="#VS8" height="32" width="32" x="-114.4" y="-156"></use><use xlink:href="#SS8" height="26.032" width="26.032" x="-111.416" y="-119"></use><use xlink:href="#SS8" height="70" width="70" x="-87.501" y="-135.501"></use><use xlink:href="#SS8" height="70" width="70" x="17.501" y="-135.501"></use><use xlink:href="#SS8" height="70" width="70" x="-35" y="-115.4"></use><use xlink:href="#SS8" height="70" width="70" x="-87.501" y="-35"></use><use xlink:href="#SS8" height="70" width="70" x="17.501" y="-35"></use><g transform="rotate(180)"><use xlink:href="#VS8" height="32" width="32" x="-114.4" y="-156"></use><use xlink:href="#SS8" height="26.032" width="26.032" x="-111.416" y="-119"></use><use xlink:href="#SS8" height="70" width="70" x="-87.501" y="-135.501"></use><use xlink:href="#SS8" height="70" width="70" x="17.501" y="-135.501"></use><use xlink:href="#SS8" height="70" width="70" x="-35" y="-115.4"></use></g></svg>