<?xml version="1.0" encoding="UTF-8" standalone="no"?>
<svg xmlns="http://www.w3.org/2000/svg" xmlns:xlink="http://www.w3.org/1999/xlink" class="card" face="AS" height="3.5in" preserveAspectRatio="none" viewBox="-120 -168 240 336" width="2.5in"><defs><symbol id="VSA" viewBox="-500 -500 1000 1000" preserveAspectRatio="xMinYMid"><path d="M-270 460L-110 460M-200 450L0 -460L200 450M110 460L270 460M-120 130L120 130" stroke="#fff773" stroke-width="80" stroke-linecap="square" stroke-miterlimit="1.5" fill="none"></path></symbol><symbol id="SSA" viewBox="-600 -600 1200 1200" preserveAspectRatio="xMinYMid"><path d="M0 -500C350 -250 460 -100 460 100C460 300 260 340 210 340C110 340 55 285 100 300L130 500L-130 500L-100 300C-55 285 -110 340 -210 340C-260 340 -460 300 -460 100C-460 -100 -350 -250 0 -500Z" fill="#fff773"></path></symbol></defs><rect width="239" height="335" x="-119.5" y="-167.5" rx="12" ry="12" fill="#000000" stroke="black"></rect><use xlink:href="#SSA" height="70" width="70" x="-35" y="-35"></use><text font-size="20" font-family="Bariol" fill="#fff773" text-anchor="middle" y="100.4">Enjoy</text><text font-size="20" font-family="Bariol" fill="#fff773" text-anchor="middle" y="120.4">your stay.</text><use xlink:href="#VSA" height="32" width="32" x="-114.4" y="-156"></use><use xlink:href="#SSA" height="26.032" width="26.032" x="-111.416" y="-119"></use><g transform="rotate(180)"><use xlink:href="#VSA" height="32" width="32" x="-114.4" y="-156"></use><use xlink:href="#SSA" height="26.032" width="26.032" x="-111.416" y="-119"></use></g></svg>