<?xml version="1.0" encoding="UTF-8" standalone="no"?>
<svg xmlns:xlink="http://www.w3.org/1999/xlink" class="card" face="JC"
    height="3.5in" preserveAspectRatio="none" viewBox="-120 -168 240 336" width="2.5in" xmlns="http://www.w3.org/2000/svg">
    <defs>
        <symbol id="SCJ" preserveAspectRatio="xMinYMid" viewBox="-600 -600 1200 1200">
            <path
                d="M-100 500L100 500L100 340A260 260 0 1 0 200 -150A230 230 0 1 0 -200 -150A260 260 0 1 0 -100 340Z"
                fill="#0066b1"></path>
        </symbol>
        <symbol id="VCJ" preserveAspectRatio="xMinYMid" viewBox="-500 -500 1000 1000">
            <path d="M50 -460L250 -460M150 -460L150 250A100 100 0 0 1 -250 250L-250 220"
                fill="none" stroke="#0066b1" stroke-linecap="square" stroke-miterlimit="1.5"
                stroke-width="80"></path>
        </symbol>
        <rect height="260.8" id="XCJ" width="164.8" x="-82.4" y="-130.4"></rect>
    </defs>
    <rect fill="#000000" height="335" rx="12" ry="12" stroke="#0066b1" width="239" x="-119.5"
        y="-167.5"></rect>
    <use fill="#FFF" height="260.8" stroke="#88f" width="164.8" xlink:href="#XCJ"></use>
    <use height="164.8" width="164.8" x="-82.4" y="-82.4" xlink:href="#VCJ"></use>
    <use height="32" width="32" x="-114.4" y="-156" xlink:href="#VCJ"></use>
    <use height="26.032" width="26.032" x="-111.416" y="-119" xlink:href="#SCJ"></use>
    <g transform="rotate(180)">
        <use height="32" width="32" x="-114.4" y="-156" xlink:href="#VCJ"></use>
        <use height="26.032" width="26.032" x="-111.416" y="-119" xlink:href="#SCJ"></use>
    </g>
</svg>