<?xml version="1.0" encoding="UTF-8" standalone="no"?>
<svg xmlns:xlink="http://www.w3.org/1999/xlink" class="card" face="KD"
    height="3.5in" preserveAspectRatio="none" viewBox="-120 -168 240 336" width="2.5in" xmlns="http://www.w3.org/2000/svg">
    <defs>
        <symbol id="SDK" preserveAspectRatio="xMinYMid" viewBox="-600 -600 1200 1200">
            <path d="M-400 0L0 -500L400 0L 0 500Z" fill="#82A7D6"></path>
        </symbol>
        <symbol id="VDK" preserveAspectRatio="xMinYMid" viewBox="-500 -500 1000 1000">
            <path
                d="M-285 -460L-85 -460M-185 -460L-185 460M-285 460L-85 460M85 -460L285 -460M185 -440L-170 155M85 460L285 460M185 440L-10 -70"
                fill="none" stroke="#82A7D6" stroke-linecap="square" stroke-miterlimit="1.5"
                stroke-width="80"></path>
        </symbol>
        <rect height="260.8" id="XDK" width="164.8" x="-82.4" y="-130.4"></rect>
    </defs>
    <rect fill="#000000" height="335" rx="12" ry="12" stroke="#000000" width="239" x="-119.5"
        y="-167.5"></rect>
    <use fill="#FFF" height="260.8" stroke="#88f" width="164.8" xlink:href="#XDK"></use>
    <use height="164.8" width="164.8" x="-82.4" y="-82.4" xlink:href="#VDK"></use>
    <use height="32" width="32" x="-114.4" y="-156" xlink:href="#VDK"></use>
    <use height="26.032" width="26.032" x="-111.416" y="-119" xlink:href="#SDK"></use>
    <g transform="rotate(180)">
        <use height="32" width="32" x="-114.4" y="-156" xlink:href="#VDK"></use>
        <use height="26.032" width="26.032" x="-111.416" y="-119" xlink:href="#SDK"></use>
    </g>
</svg>