<?xml version="1.0" encoding="UTF-8" standalone="no"?>
<svg xmlns:xlink="http://www.w3.org/1999/xlink" class="card" face="9D"
    height="3.5in" preserveAspectRatio="none" viewBox="-120 -168 240 336" width="2.5in" xmlns="http://www.w3.org/2000/svg">
    <defs>
        <symbol id="SD9" preserveAspectRatio="xMinYMid" viewBox="-600 -600 1200 1200">
            <path d="M-400 0L0 -500L400 0L 0 500Z" fill="#82A7D6"></path>
        </symbol>
        <symbol id="VD9" preserveAspectRatio="xMinYMid" viewBox="-500 -500 1000 1000">
            <path
                d="M250 -100A250 250 0 0 1 -250 -100L-250 -210A250 250 0 0 1 250 -210L250 210A250 250 0 0 1 0 460C-150 460 -180 400 -200 375"
                fill="none" stroke="#82A7D6" stroke-linecap="square" stroke-miterlimit="1.5"
                stroke-width="80"></path>
        </symbol>
        <rect height="260.8" id="XD9" width="164.8" x="-82.4" y="-130.4"></rect>
    </defs>
    <rect fill="#000000" height="335" rx="12" ry="12" stroke="#000000" width="239" x="-119.5"
        y="-167.5"></rect>
    <use fill="#FFF" height="260.8" stroke="#88f" width="164.8" xlink:href="#XD9"></use>
    <use height="32" width="32" x="-114.4" y="-156" xlink:href="#VD9"></use>
    <use height="26.032" width="26.032" x="-111.416" y="-119" xlink:href="#SD9"></use>
    <use height="70" width="70" x="-89.067" y="-131.234" xlink:href="#SD9"></use>
    <use height="70" width="70" x="19.067" y="-131.234" xlink:href="#SD9"></use>
    <use height="70" width="70" x="-89.067" y="-67.078" xlink:href="#SD9"></use>
    <use height="70" width="70" x="19.067" y="-67.078" xlink:href="#SD9"></use>
    <use height="70" width="70" x="-35" y="-35" xlink:href="#SD9"></use>
    <g transform="rotate(180)">
        <use height="32" width="32" x="-114.4" y="-156" xlink:href="#VD9"></use>
        <use height="26.032" width="26.032" x="-111.416" y="-119" xlink:href="#SD9"></use>
        <use height="70" width="70" x="-89.067" y="-131.234" xlink:href="#SD9"></use>
        <use height="70" width="70" x="19.067" y="-131.234" xlink:href="#SD9"></use>
        <use height="70" width="70" x="-89.067" y="-67.078" xlink:href="#SD9"></use>
        <use height="70" width="70" x="19.067" y="-67.078" xlink:href="#SD9"></use>
    </g>
</svg>