<?xml version="1.0" encoding="UTF-8" standalone="no"?>
<svg xmlns:xlink="http://www.w3.org/1999/xlink" class="card" face="AC"
    height="3.5in" preserveAspectRatio="none" viewBox="-120 -168 240 336" width="2.5in" xmlns="http://www.w3.org/2000/svg">
    <defs>
        <symbol id="VCA" preserveAspectRatio="xMinYMid" viewBox="-500 -500 1000 1000">
            <path d="M-270 460L-110 460M-200 450L0 -460L200 450M110 460L270 460M-120 130L120 130"
                fill="none" stroke="#0066b1" stroke-linecap="square" stroke-miterlimit="1.5"
                stroke-width="80"></path>
        </symbol>
        <symbol id="SCA" preserveAspectRatio="xMinYMid" viewBox="-600 -600 1200 1200">
            <path
                d="M-100 500L100 500L100 340A260 260 0 1 0 200 -150A230 230 0 1 0 -200 -150A260 260 0 1 0 -100 340Z"
                fill="#0066b1"></path>
        </symbol>
        <symbol id="VCAY" preserveAspectRatio="xMinYMid" viewBox="-500 -500 1000 1000">
            <path d="M-270 460L-110 460M-200 450L0 -460L200 450M110 460L270 460M-120 130L120 130"
                fill="none" stroke="#fff773" stroke-linecap="square" stroke-miterlimit="1.5"
                stroke-width="80"></path>
        </symbol>
        <symbol id="CCLRD" preserveAspectRatio="xMinYMid" viewBox="-600 -600 1200 1200">
            <path
                d="M-100 500L100 500L100 340A260 260 0 1 0 200 -150A230 230 0 1 0 -200 -150A260 260 0 1 0 -100 340Z"
                fill="#fff773"></path>
        </symbol>
        <rect height="260.8" id="XCA" width="164.8" x="-82.4" y="-130.4"></rect>
    </defs>
    <rect fill="#000000" height="335" rx="12" ry="12" stroke="#000000" width="239" x="-119.5"
        y="-167.5"></rect>
    <use fill="#FFF" height="260.8" stroke="#88f" width="164.8" xlink:href="#XCA"></use>
    <use height="70" width="70" x="-35" y="-35" xlink:href="#SCA"></use>
    <use height="32" width="32" x="-114.4" y="-156" xlink:href="#VCAY"></use>
    <use height="26.032" width="26.032" x="-111.416" y="-119" xlink:href="#CCLRD"></use>
    <g transform="rotate(180)">
        <use height="32" width="32" x="-114.4" y="-156" xlink:href="#VCAY"></use>
        <use height="26.032" width="26.032" x="-111.416" y="-119" xlink:href="#CCLRD"></use>
    </g>
</svg>