<?xml version="1.0" encoding="UTF-8" standalone="no"?>
<svg xmlns:xlink="http://www.w3.org/1999/xlink" class="card" face="AS"
    height="3.5in" preserveAspectRatio="none" viewBox="-120 -168 240 336" width="2.5in" xmlns="http://www.w3.org/2000/svg">
    <defs>
        <symbol id="VSA" preserveAspectRatio="xMinYMid" viewBox="-500 -500 1000 1000">
            <path d="M-270 460L-110 460M-200 450L0 -460L200 450M110 460L270 460M-120 130L120 130"
                fill="none" stroke="#0066b1" stroke-linecap="square" stroke-miterlimit="1.5"
                stroke-width="80"></path>
        </symbol>
        <symbol id="SSA" preserveAspectRatio="xMinYMid" viewBox="-600 -600 1200 1200">
            <path
                d="M0 -500C350 -250 460 -100 460 100C460 300 260 340 210 340C110 340 55 285 100 300L130 500L-130 500L-100 300C-55 285 -110 340 -210 340C-260 340 -460 300 -460 100C-460 -100 -350 -250 0 -500Z"
                fill="#0066b1"></path>
        </symbol>
        <symbol id="VSAY" preserveAspectRatio="xMinYMid" viewBox="-500 -500 1000 1000">
            <path d="M-270 460L-110 460M-200 450L0 -460L200 450M110 460L270 460M-120 130L120 130"
                fill="none" stroke="#fff773" stroke-linecap="square" stroke-miterlimit="1.5"
                stroke-width="80"></path>
        </symbol>
        <symbol id="SS2Y" preserveAspectRatio="xMinYMid" viewBox="-600 -600 1200 1200">
            <path
                d="M0 -500C350 -250 460 -100 460 100C460 300 260 340 210 340C110 340 55 285 100 300L130 500L-130 500L-100 300C-55 285 -110 340 -210 340C-260 340 -460 300 -460 100C-460 -100 -350 -250 0 -500Z"
                fill="#fff773"></path>
        </symbol>
        <rect height="260.8" id="XSA" width="164.8" x="-82.4" y="-130.4"></rect>
    </defs>
    <rect fill="#000000" height="335" rx="12" ry="12" stroke="#000000" width="239" x="-119.5"
        y="-167.5"></rect>
    <use fill="#FFF" height="260.8" stroke="#88f" width="164.8" xlink:href="#XSA"></use>
    <use height="70" width="70" x="-35" y="-35" xlink:href="#SSA"></use>
    <text fill="#0066b1" font-family="Bariol" font-size="20" text-anchor="middle" y="100.4">Enjoy
    </text>
    <text fill="#0066b1" font-family="Bariol" font-size="20" text-anchor="middle" y="120.4">your stay.
    </text>
    <use height="32" width="32" x="-114.4" y="-156" xlink:href="#VSAY"></use>
    <use height="26.032" width="26.032" x="-111.416" y="-119" xlink:href="#SS2Y"></use>
    <g transform="rotate(180)">
        <use height="32" width="32" x="-114.4" y="-156" xlink:href="#VSAY"></use>
        <use height="26.032" width="26.032" x="-111.416" y="-119" xlink:href="#SS2Y"></use>
    </g>
</svg>