<?xml version="1.0" encoding="UTF-8" standalone="no"?>
<svg xmlns:xlink="http://www.w3.org/1999/xlink" class="card" face="2H"
    height="3.5in" preserveAspectRatio="none" viewBox="-120 -168 240 336" width="2.5in" xmlns="http://www.w3.org/2000/svg">
    <defs>
        <symbol id="SH2" preserveAspectRatio="xMinYMid" viewBox="-600 -600 1200 1200">
            <path
                d="M0 -300A230 230 0 0 1 460 -150C400 0 200 300 0 500C-200 300 -400 0 -460 -150A230 230 0 0 1 0 -300Z"
                fill="#82A7D6"></path>
        </symbol>
        <symbol id="VH2" preserveAspectRatio="xMinYMid" viewBox="-500 -500 1000 1000">
            <path
                d="M-225 -225C-245 -265 -200 -460 0 -460C 200 -460 225 -325 225 -225C225 -25 -225 160 -225 460L225 460L225 300"
                fill="none" stroke="#82A7D6" stroke-linecap="square" stroke-miterlimit="1.5"
                stroke-width="80"></path>
        </symbol>
        <rect height="260.8" id="XH2" width="164.8" x="-82.4" y="-130.4"></rect>
    </defs>
    <rect fill="#000000" height="335" rx="12" ry="12" stroke="#000000" width="239" x="-119.5"
        y="-167.5"></rect>
    <use fill="#FFF" height="260.8" stroke="#88f" width="164.8" xlink:href="#XH2"></use>
    <use height="32" width="32" x="-114.4" y="-156" xlink:href="#VH2"></use>
    <use height="26.032" width="26.032" x="-111.416" y="-119" xlink:href="#SH2"></use>
    <use height="70" width="70" x="-35" y="-132.196" xlink:href="#SH2"></use>
    <g transform="rotate(180)">
        <use height="32" width="32" x="-114.4" y="-156" xlink:href="#VH2"></use>
        <use height="26.032" width="26.032" x="-111.416" y="-119" xlink:href="#SH2"></use>
        <use height="70" width="70" x="-35" y="-132.196" xlink:href="#SH2"></use>
    </g>
</svg>