<?xml version="1.0" encoding="UTF-8" standalone="no"?>
<svg xmlns:xlink="http://www.w3.org/1999/xlink" class="card" face="QH"
    height="3.5in" preserveAspectRatio="none" viewBox="-120 -168 240 336" width="2.5in" xmlns="http://www.w3.org/2000/svg">
    <defs>
        <symbol id="SHQ" preserveAspectRatio="xMinYMid" viewBox="-600 -600 1200 1200">
            <path
                d="M0 -300A230 230 0 0 1 460 -150C400 0 200 300 0 500C-200 300 -400 0 -460 -150A230 230 0 0 1 0 -300Z"
                fill="#82A7D6"></path>
        </symbol>
        <symbol id="VHQ" preserveAspectRatio="xMinYMid" viewBox="-500 -500 1000 1000">
            <path
                d="M-260 100C40 100 -40 460 260 460M-175 0L-175 -285A175 175 0 0 1 175 -285L175 285A175 175 0 0 1 -175 285Z"
                fill="none" stroke="#82A7D6" stroke-linecap="square" stroke-miterlimit="1.5"
                stroke-width="80"></path>
        </symbol>
        <rect height="260.8" id="XHQ" width="164.8" x="-82.4" y="-130.4"></rect>
    </defs>
    <rect fill="#000000" height="335" rx="12" ry="12" stroke="#000000" width="239" x="-119.5"
        y="-167.5"></rect>
    <use fill="#FFF" height="260.8" stroke="#88f" width="164.8" xlink:href="#XHQ"></use>
    <use height="164.8" width="164.8" x="-82.4" y="-82.4" xlink:href="#VHQ"></use>
    <use height="32" width="32" x="-114.4" y="-156" xlink:href="#VHQ"></use>
    <use height="26.032" width="26.032" x="-111.416" y="-119" xlink:href="#SHQ"></use>
    <g transform="rotate(180)">
        <use height="32" width="32" x="-114.4" y="-156" xlink:href="#VHQ"></use>
        <use height="26.032" width="26.032" x="-111.416" y="-119" xlink:href="#SHQ"></use>
    </g>
</svg>